<svg width="76" height="90" viewBox="0 0 76 90" fill="none" xmlns="http://www.w3.org/2000/svg">
<g id="Group 3">
<rect id="Rectangle 4" width="76" height="90" rx="10" fill="#1E293B"/>
<g id="Group 2">
<path id="Rectangle 5" d="M15.2201 31.9226L42.4453 16.4226L43.1702 18.9226L15.2201 34.7098L15.2201 31.9226Z" fill="white"/>
<path id="Rectangle 7" d="M15.7198 37.4226L41.9453 24.4226L41.9453 27.4226L15.72 39.4226L15.7198 37.4226Z" fill="white"/>
<path id="Rectangle 8" d="M16.5511 42.6685L42.1706 32.1685L42.1705 34.6685L15.9453 45.6686L16.5511 42.6685Z" fill="white"/>
<path id="Rectangle 9" d="M15.9454 48.9226L41.7336 39.9226L41.7336 42.9226L15.9453 50.9226L15.9454 48.9226Z" fill="white"/>
<path id="Rectangle 10" d="M16.2304 54.4227L41.945 47.9227L41.945 50.9227L15.9453 56.9227L16.2304 54.4227Z" fill="white"/>
<path id="Rectangle 11" d="M15.9453 60.4226L42.0192 55.4227L42.0192 58.4227L15.4453 62.9226L15.9453 60.4226Z" fill="white"/>
<path id="Rectangle 12" d="M16.5001 66L42.4453 63.4226L42.0001 66.5L15.5001 68.5L16.5001 66Z" fill="white"/>
<path id="Rectangle 6" d="M59.9453 33.4227L42.4453 19.4227L42.4453 16.4227L61.9453 32.9227L59.9453 33.4227Z" fill="white"/>
<rect id="Rectangle 13" x="15.4453" y="70.9226" width="46" height="3" fill="white"/>
</g>
</g>
</svg>
